<svg width="42" height="42" viewBox="0 0 42 42" fill="none" xmlns="http://www.w3.org/2000/svg">
<g id="ant-design:facebook-filled">
<path id="Vector" d="M36.2103 5.37988H6.7512C6.04274 5.37988 5.47037 5.95225 5.47037 6.66071V36.1198C5.47037 36.8283 6.04274 37.4007 6.7512 37.4007H36.2103C36.9188 37.4007 37.4911 36.8283 37.4911 36.1198V6.66071C37.4911 5.95225 36.9188 5.37988 36.2103 5.37988ZM32.5119 14.7259H29.9543C27.949 14.7259 27.5607 15.6786 27.5607 17.0795V20.1655H32.3478L31.7234 24.9966H27.5607V37.4007H22.5695V25.0006H18.3948V20.1655H22.5695V16.6032C22.5695 12.4685 25.0951 10.215 28.7855 10.215C30.5546 10.215 32.0716 10.3471 32.5159 10.4071V14.7259H32.5119Z" fill="#FA4A0C"/>
</g>
</svg>
