<svg width="41" height="42" viewBox="0 0 41 42" fill="none" xmlns="http://www.w3.org/2000/svg">
<g id="ant-design:twitter-outlined">
<path id="Vector" d="M37.1449 11.0757C35.9201 11.604 34.5873 11.9843 33.2144 12.1324C34.6398 11.2856 35.7072 9.94774 36.2163 8.36992C34.8788 9.16559 33.4135 9.72353 31.8855 10.019C31.2469 9.33625 30.4745 8.79235 29.6165 8.42118C28.7584 8.05001 27.8332 7.85952 26.8983 7.86159C23.1158 7.86159 20.0739 10.9276 20.0739 14.69C20.0739 15.2184 20.1379 15.7467 20.242 16.255C14.5783 15.9588 9.52702 13.2531 6.16884 9.1104C5.55695 10.1555 5.23629 11.3456 5.24024 12.5566C5.24024 14.9262 6.44502 17.0155 8.28221 18.2443C7.19953 18.2017 6.1422 17.9041 5.19621 17.3758V17.4598C5.19621 20.778 7.54173 23.5278 10.6678 24.1602C10.0808 24.3126 9.47702 24.3906 8.8706 24.3923C8.42631 24.3923 8.00604 24.3483 7.58176 24.2882C8.44632 26.994 10.964 28.9593 13.9619 29.0233C11.6164 30.8605 8.67847 31.9412 5.4884 31.9412C4.91603 31.9412 4.38769 31.9212 3.83933 31.8572C6.8653 33.7984 10.4556 34.9191 14.3221 34.9191C26.8743 34.9191 33.7427 24.5204 33.7427 15.4945C33.7427 15.1983 33.7427 14.9022 33.7227 14.606C35.0516 13.6333 36.2163 12.4286 37.1449 11.0757Z" fill="#FA4A0C"/>
</g>
</svg>
